# xmcd
#
# Track frame offsets: 
#        150
#        20512
#        40762
#        59987
#        67875
#        83350
#        100900
#        122112
#        141337
#        161150
#
# Disc length: 2242 seconds
#
# Revision: 8
# Processed by: cddbd v1.5.2PL0 Copyright (c) Steve Scherf et al.
# Submitted via: ExactAudioCopyFreeDBPlugin 1.0
#
DISCID=8708c00a
DTITLE=Roxy Music - Avalon
DYEAR=1982
DGENRE=Rock
TTITLE0=More Than This
TTITLE1=The Space Between
TTITLE2=Avalon
TTITLE3=India
TTITLE4=While My Heart Is Still Beating
TTITLE5=The Main Thing
TTITLE6=Take A Chance With Me
TTITLE7=To Turn You On
TTITLE8=True To Life
TTITLE9=Tara
EXTD=
EXTT0=
EXTT1=
EXTT2=
EXTT3=
EXTT4=
EXTT5=
EXTT6=
EXTT7=
EXTT8=
EXTT9=
PLAYORDER=
